<svg xmlns="http://www.w3.org/2000/svg" viewBox="0 0 64 64" width="64" height="64">
  <rect width="64" height="64" rx="14" fill="#fbf3ee"></rect>
  <g transform="translate(32 32)">
    <g fill="#f3b9cb" stroke="#c97a8d" stroke-width="1.4">
      <path transform="rotate(0)   translate(-11 -25) scale(0.22)" d="M50 4 C 28 4, 14 24, 19 50 C 23 72, 42 92, 48 84 C 49 81, 51 81, 52 84 C 58 92, 77 72, 81 50 C 86 24, 72 4, 50 4 Z"></path>
      <path transform="rotate(72)  translate(-11 -25) scale(0.22)" d="M50 4 C 28 4, 14 24, 19 50 C 23 72, 42 92, 48 84 C 49 81, 51 81, 52 84 C 58 92, 77 72, 81 50 C 86 24, 72 4, 50 4 Z"></path>
      <path transform="rotate(144) translate(-11 -25) scale(0.22)" d="M50 4 C 28 4, 14 24, 19 50 C 23 72, 42 92, 48 84 C 49 81, 51 81, 52 84 C 58 92, 77 72, 81 50 C 86 24, 72 4, 50 4 Z"></path>
      <path transform="rotate(216) translate(-11 -25) scale(0.22)" d="M50 4 C 28 4, 14 24, 19 50 C 23 72, 42 92, 48 84 C 49 81, 51 81, 52 84 C 58 92, 77 72, 81 50 C 86 24, 72 4, 50 4 Z"></path>
      <path transform="rotate(288) translate(-11 -25) scale(0.22)" d="M50 4 C 28 4, 14 24, 19 50 C 23 72, 42 92, 48 84 C 49 81, 51 81, 52 84 C 58 92, 77 72, 81 50 C 86 24, 72 4, 50 4 Z"></path>
    </g>
    <circle r="4.6" fill="#c89760"></circle>
    <circle r="1.4" cx="-2.6" cy="-2.6" fill="#fff" opacity="0.7"></circle>
  </g>
</svg>